<?xml version="1.0" encoding="UTF-8"?>
<svg xmlns="http://www.w3.org/2000/svg" viewBox="0 0 1000 1000">
  <path d="m172.08,581.48c-10.16,0-18.99-1.66-26.49-4.96s-13.71-7.9-18.63-13.79c-4.92-5.89-8.63-12.78-11.13-20.68-2.5-7.9-3.75-16.45-3.75-25.64s1.25-17.82,3.75-25.89c2.5-8.06,6.21-15.04,11.13-20.93,4.92-5.89,11.13-10.52,18.63-13.91,7.5-3.39,16.33-5.08,26.49-5.08s19.03,1.69,26.61,5.08c7.58,3.39,13.87,8.02,18.87,13.91,5,5.89,8.71,12.86,11.13,20.93,2.42,8.07,3.63,16.69,3.63,25.89s-1.21,17.74-3.63,25.64c-2.42,7.9-6.13,14.8-11.13,20.68-5,5.89-11.29,10.49-18.87,13.79-7.58,3.3-16.45,4.96-26.61,4.96Zm0-26.13c9.03,0,15.52-3.34,19.47-10.04,3.95-6.69,5.93-16.33,5.93-28.91s-1.98-22.21-5.93-28.91c-3.95-6.69-10.44-10.04-19.47-10.04s-15.28,3.35-19.23,10.04c-3.95,6.69-5.93,16.33-5.93,28.91s1.97,22.22,5.93,28.91c3.95,6.69,10.36,10.04,19.23,10.04Z" stroke-width="0"/>
  <path d="m283.6,524.14c-9.03-2.58-16.09-6.41-21.17-11.49-5.08-5.08-7.62-12.7-7.62-22.86,0-12.25,4.39-21.85,13.18-28.79,8.79-6.93,20.76-10.4,35.93-10.4,6.29,0,12.5.57,18.63,1.69,6.13,1.13,12.34,2.82,18.63,5.08-.33,4.2-1.13,8.55-2.42,13.06-1.29,4.52-2.82,8.47-4.6,11.85-3.87-1.61-8.15-3.02-12.82-4.23-4.68-1.21-9.6-1.81-14.76-1.81-5.48,0-9.76.85-12.82,2.54-3.07,1.69-4.6,4.4-4.6,8.1s1.09,6.05,3.27,7.5,5.28,2.82,9.31,4.11l13.79,4.11c4.51,1.29,8.59,2.87,12.22,4.72,3.63,1.86,6.73,4.15,9.31,6.9,2.58,2.74,4.6,6.13,6.05,10.16,1.45,4.03,2.18,8.95,2.18,14.76s-1.25,11.53-3.75,16.69c-2.5,5.16-6.13,9.64-10.89,13.43-4.76,3.79-10.52,6.77-17.3,8.95-6.77,2.18-14.44,3.27-22.98,3.27-3.87,0-7.42-.12-10.64-.36-3.23-.24-6.33-.65-9.31-1.21-2.99-.57-5.93-1.25-8.83-2.06-2.9-.81-6.05-1.85-9.44-3.15.32-4.35,1.09-8.75,2.3-13.18,1.21-4.43,2.78-8.75,4.72-12.94,5.32,2.1,10.36,3.67,15.12,4.72,4.76,1.05,9.71,1.57,14.88,1.57,2.26,0,4.72-.2,7.38-.61,2.66-.4,5.12-1.13,7.38-2.18,2.26-1.05,4.15-2.42,5.69-4.11,1.53-1.69,2.3-3.91,2.3-6.65,0-3.87-1.17-6.65-3.51-8.35-2.34-1.69-5.61-3.18-9.8-4.48l-15-4.36Z" stroke-width="0"/>
  <path d="m368.52,453.5c5.81-.97,11.53-1.45,17.18-1.45s11.37.48,17.18,1.45v66.29c0,6.62.52,12.06,1.57,16.33,1.05,4.28,2.66,7.66,4.84,10.16,2.18,2.5,4.88,4.28,8.1,5.32,3.22,1.05,7.02,1.57,11.37,1.57,5.96,0,10.97-.56,15-1.69v-97.98c5.81-.97,11.45-1.45,16.93-1.45s11.37.48,17.18,1.45v120.23c-5.16,1.78-11.98,3.51-20.44,5.2s-17.3,2.54-26.49,2.54c-8.23,0-16.13-.65-23.71-1.94-7.58-1.29-14.24-4.03-19.96-8.23-5.73-4.19-10.28-10.32-13.67-18.39-3.39-8.06-5.08-18.79-5.08-32.18v-67.25Z" stroke-width="0"/>
  <path d="m510.52,578.57c-.97-5.96-1.45-11.85-1.45-17.66s.48-11.77,1.45-17.9c5.96-.97,11.85-1.45,17.66-1.45s11.77.48,17.9,1.45c.97,6.13,1.45,12.02,1.45,17.66,0,5.97-.48,11.94-1.45,17.9-6.13.97-12.02,1.45-17.66,1.45-5.97,0-11.94-.48-17.9-1.45Zm-.97-173.94c6.29-.97,12.5-1.45,18.63-1.45s12.58.48,18.87,1.45l-2.42,118.3c-5.65.97-11.05,1.45-16.21,1.45-5.48,0-10.97-.48-16.45-1.45l-2.42-118.3Z" stroke-width="0"/>
  <path d="m579.23,453.5c5.81-.97,11.53-1.45,17.18-1.45s11.37.48,17.18,1.45v66.29c0,6.62.52,12.06,1.57,16.33,1.05,4.28,2.66,7.66,4.84,10.16,2.18,2.5,4.88,4.28,8.1,5.32,3.22,1.05,7.02,1.57,11.37,1.57,5.96,0,10.97-.56,15-1.69v-97.98c5.81-.97,11.45-1.45,16.93-1.45s11.37.48,17.18,1.45v120.23c-5.16,1.78-11.98,3.51-20.44,5.2-8.47,1.69-17.3,2.54-26.49,2.54-8.23,0-16.13-.65-23.71-1.94-7.58-1.29-14.24-4.03-19.96-8.23-5.73-4.19-10.28-10.32-13.67-18.39-3.39-8.06-5.08-18.79-5.08-32.18v-67.25Z" stroke-width="0"/>
  <path d="m704.54,453.74c3.71-.81,7.22-1.29,10.52-1.45,3.3-.16,6.09-.24,8.35-.24,3.22,0,6.37.08,9.43.24,3.06.16,5.96.57,8.71,1.21l20.08,92.41,23.22-92.41c5-.97,10.48-1.45,16.45-1.45,4.19.16,7.66.33,10.4.48,2.74.16,5.16.48,7.26.97l22.74,90.72,19.84-90.72c2.74-.48,5.32-.85,7.74-1.09s5.16-.36,8.23-.36c2.26,0,4.96.08,8.1.24,3.14.16,6.65.65,10.52,1.45l-38.95,124.83c-2.9.48-6.01.8-9.31.97-3.31.16-6.09.24-8.35.24-2.42,0-5.12-.08-8.1-.24-2.99-.16-5.85-.57-8.59-1.21l-22.74-82.74-23.47,82.98c-3.07.48-6.25.8-9.56.97-3.31.16-6.09.24-8.35.24s-4.88-.08-7.86-.24c-2.99-.16-5.85-.57-8.59-1.21l-37.74-124.59Z" stroke-width="0"/>
</svg>