<?xml version="1.0" encoding="UTF-8"?>
<svg id="b" data-name="LOGO LAYER" xmlns="http://www.w3.org/2000/svg" viewBox="0 0 500 500">
  <g>
    <path d="m225,153.16c-43.08,11.13-75,50.33-75,96.84s31.92,85.71,75,96.84v-193.67Z" fill="none" stroke-width="0"/>
    <path d="m275,153.16v193.67c43.08-11.13,75-50.32,75-96.84s-31.92-85.71-75-96.84Z" fill="none" stroke-width="0"/>
    <path d="m250,100c-82.84,0-150,67.16-150,150s67.16,150,150,150,150-67.16,150-150-67.16-150-150-150Zm-100,150c0-46.51,31.92-85.71,75-96.84v193.67c-43.08-11.13-75-50.32-75-96.84Zm125,96.84v-193.67c43.08,11.13,75,50.33,75,96.84s-31.92,85.71-75,96.84Z" fill="#fff" stroke-width="0"/>
  </g>
  <path d="m250,55c107.7,0,195,87.3,195,195s-87.3,195-195,195S55,357.7,55,250,142.3,55,250,55m0-40c-31.71,0-62.49,6.22-91.48,18.48-27.99,11.84-53.12,28.78-74.69,50.35-21.57,21.57-38.51,46.7-50.35,74.68-12.27,29-18.48,59.78-18.48,91.48s6.22,62.49,18.48,91.48c11.84,27.99,28.78,53.12,50.35,74.69,21.57,21.57,46.7,38.51,74.69,50.35,29,12.26,59.78,18.48,91.48,18.48s62.49-6.22,91.48-18.48c27.99-11.84,53.12-28.78,74.69-50.35,21.57-21.57,38.51-46.7,50.35-74.69,12.26-29,18.48-59.78,18.48-91.48s-6.22-62.49-18.48-91.48c-11.84-27.99-28.78-53.12-50.35-74.68-21.57-21.57-46.7-38.51-74.69-50.35-29-12.27-59.78-18.48-91.48-18.48h0Z" fill="#fff" stroke-width="0"/>
</svg>