<?xml version="1.0" encoding="UTF-8"?>
<svg id="b" data-name="LOGO LAYER" xmlns="http://www.w3.org/2000/svg" viewBox="0 0 500 500">
  <path d="m250,401c-13.81,0-25-11.19-25-25V124c0-13.81,11.19-25,25-25s25,11.19,25,25v252c0,13.81-11.19,25-25,25Z" fill="#fff" stroke-width="0"/>
  <path d="m170,330c-13.81,0-25-11.19-25-25v-110c0-13.81,11.19-25,25-25s25,11.19,25,25v110c0,13.81-11.19,25-25,25Z" fill="#fff" stroke-width="0"/>
  <path d="m330,330c-13.81,0-25-11.19-25-25v-110c0-13.81,11.19-25,25-25s25,11.19,25,25v110c0,13.81-11.19,25-25,25Z" fill="#fff" stroke-width="0"/>
  <path d="m250,55c107.7,0,195,87.3,195,195s-87.3,195-195,195S55,357.7,55,250,142.3,55,250,55m0-40c-31.71,0-62.49,6.22-91.48,18.48-27.99,11.84-53.12,28.78-74.69,50.35-21.57,21.57-38.51,46.7-50.35,74.68-12.27,29-18.48,59.78-18.48,91.48s6.22,62.49,18.48,91.48c11.84,27.99,28.78,53.12,50.35,74.69,21.57,21.57,46.7,38.51,74.69,50.35,29,12.26,59.78,18.48,91.48,18.48s62.49-6.22,91.48-18.48c27.99-11.84,53.12-28.78,74.69-50.35,21.57-21.57,38.51-46.7,50.35-74.69,12.26-29,18.48-59.78,18.48-91.48s-6.22-62.49-18.48-91.48c-11.84-27.99-28.78-53.12-50.35-74.68-21.57-21.57-46.7-38.51-74.69-50.35-29-12.27-59.78-18.48-91.48-18.48h0Z" fill="#fff" stroke-width="0"/>
</svg>